<?xml version="1.0" standalone="no"?>
<!DOCTYPE svg PUBLIC "-//W3C//DTD SVG 20010904//EN"
 "http://www.w3.org/TR/2001/REC-SVG-20010904/DTD/svg10.dtd">
<svg version="1.0" xmlns="http://www.w3.org/2000/svg"
 width="512.000000pt" height="512.000000pt" viewBox="0 0 512.000000 512.000000"
 preserveAspectRatio="xMidYMid meet">

<g transform="translate(0.000000,512.000000) scale(0.100000,-0.100000)"
fill="#000000" stroke="none">
<path d="M2075 5111 c-11 -5 -29 -19 -40 -31 -18 -20 -20 -39 -23 -195 l-3
-173 -147 -48 c-86 -28 -207 -78 -291 -121 l-145 -72 -122 119 c-118 116 -124
120 -165 120 l-43 0 -334 -332 c-184 -183 -340 -346 -347 -362 -22 -51 -3 -82
120 -206 l115 -115 -64 -125 c-66 -130 -120 -264 -156 -387 l-21 -73 -157 0
c-172 0 -214 -11 -239 -60 -10 -19 -12 -133 -11 -502 l3 -478 28 -27 27 -28
174 -3 175 -4 21 -71 c45 -153 138 -371 202 -475 l21 -34 -117 -117 c-114
-114 -136 -149 -128 -196 1 -11 155 -174 340 -363 l337 -342 48 0 c49 0 49 0
170 119 l122 120 149 -74 c85 -43 209 -94 292 -121 l143 -46 3 -174 3 -174 28
-27 27 -28 265 0 265 0 27 28 28 27 3 500 3 500 497 0 497 0 147 -269 148
-269 -21 -47 c-57 -130 -24 -283 84 -382 57 -52 88 -68 165 -84 50 -11 74 -11
124 0 77 16 108 32 165 84 90 83 128 195 104 310 -15 77 -46 131 -104 184 -57
52 -88 68 -165 84 -50 10 -73 10 -127 0 -36 -7 -69 -11 -72 -7 -4 3 -75 131
-159 284 -111 201 -160 282 -181 294 -26 16 -72 18 -565 18 l-537 0 -3 155
c-3 152 -3 155 -30 181 -23 24 -37 28 -125 35 -412 35 -736 302 -845 697 -31
111 -31 353 0 464 91 331 341 580 673 670 107 29 324 31 433 5 285 -71 514
-257 641 -522 24 -51 54 -100 67 -109 61 -43 148 5 148 81 0 68 -95 243 -208
382 l-34 41 447 0 c307 0 453 3 468 11 12 6 90 79 174 162 l152 151 51 -18
c71 -26 187 -19 255 14 66 32 131 99 163 168 38 82 38 193 -1 277 -97 208
-370 263 -536 107 -96 -91 -133 -228 -93 -347 l21 -60 -132 -132 -132 -133
-546 0 -546 0 -84 39 c-99 47 -232 87 -318 97 l-61 7 0 93 0 94 544 0 c527 0
544 1 569 20 13 11 93 144 177 295 83 151 156 275 163 275 6 0 37 -5 69 -12
46 -10 71 -9 120 1 77 16 108 32 165 84 90 83 128 195 104 310 -15 77 -46 131
-104 184 -57 52 -88 68 -165 84 -50 11 -74 11 -124 0 -77 -16 -108 -32 -165
-84 -108 -99 -141 -252 -84 -382 l21 -47 -146 -264 -146 -264 -499 0 -498 0
-3 495 -3 495 -28 27 -27 28 -253 2 c-138 1 -261 -2 -272 -6z m383 -808 l-3
-618 -60 -7 c-217 -27 -450 -143 -624 -311 -402 -390 -454 -1024 -121 -1477
55 -74 181 -199 255 -252 124 -88 299 -162 445 -188 36 -6 75 -13 88 -16 l22
-4 0 -615 0 -615 -125 0 -125 0 0 160 0 160 -27 30 c-23 25 -48 36 -138 60
-191 50 -351 117 -532 224 -116 68 -124 65 -267 -74 l-112 -109 -244 244 -245
245 115 115 c141 142 142 143 59 285 -97 165 -168 339 -220 538 -16 64 -28 88
-51 107 -29 24 -34 25 -189 25 l-159 0 0 350 0 350 164 0 c161 0 164 0 189 25
17 17 32 53 46 108 51 195 131 388 232 558 70 117 67 125 -71 264 l-115 115
245 245 245 245 100 -99 c156 -154 159 -155 280 -85 194 111 337 172 529 224
114 31 140 43 155 77 6 14 11 90 11 178 l0 155 125 0 125 0 -2 -617z m1853
594 c90 -60 88 -181 -4 -237 -63 -39 -146 -15 -187 52 -73 119 75 263 191 185z
m545 -816 c34 -21 64 -75 64 -116 0 -42 -29 -93 -65 -115 -41 -26 -110 -26
-151 -1 -34 21 -64 75 -64 116 0 41 30 95 64 116 40 25 112 25 152 0z m-545
-3624 c90 -60 88 -181 -4 -237 -63 -39 -146 -15 -187 52 -73 119 75 263 191
185z"/>
<path d="M1970 4016 c-19 -7 -73 -32 -119 -56 -493 -247 -826 -754 -858 -1302
-7 -123 3 -160 50 -184 38 -20 87 -11 117 21 20 22 24 40 31 135 11 143 23
213 60 334 93 304 285 563 544 733 38 26 122 72 186 104 94 47 119 64 129 88
35 85 -49 162 -140 127z"/>
<path d="M2425 3306 c-381 -73 -644 -407 -622 -791 33 -576 662 -901 1159
-599 77 47 181 149 233 229 75 115 138 337 121 428 -15 81 -112 111 -165 51
-23 -25 -29 -44 -34 -101 -28 -299 -266 -523 -557 -523 -202 0 -399 119 -492
296 -190 362 43 782 455 821 92 8 132 39 132 102 0 87 -77 116 -230 87z"/>
<path d="M4700 2887 c-25 -7 -62 -21 -83 -31 -47 -23 -132 -115 -147 -160
l-11 -35 -169 -3 c-161 -3 -169 -4 -194 -27 -31 -30 -42 -73 -26 -112 22 -51
51 -59 227 -59 l158 0 18 -44 c24 -59 100 -134 167 -165 79 -37 201 -37 280 0
219 103 265 388 89 556 -74 70 -215 107 -309 80z m159 -214 c33 -24 61 -79 61
-118 0 -40 -32 -90 -72 -115 -93 -56 -216 21 -205 129 11 107 132 165 216 104z"/>
<path d="M3534 2642 c-44 -35 -55 -82 -30 -131 37 -70 137 -66 172 7 32 68
-14 142 -88 142 -18 0 -43 -8 -54 -18z"/>
<path d="M3068 1764 c-34 -18 -48 -43 -48 -87 0 -72 74 -116 138 -83 37 19 52
44 52 86 0 42 -15 67 -50 85 -36 19 -57 18 -92 -1z"/>
<path d="M3478 1764 c-34 -18 -48 -43 -48 -84 0 -42 15 -67 50 -85 24 -13 87
-15 382 -15 l353 0 132 -132 132 -133 -21 -60 c-28 -82 -21 -164 21 -250 125
-254 488 -248 608 10 39 84 39 195 1 277 -32 69 -97 136 -163 168 -68 33 -184
40 -255 14 l-51 -18 -152 151 c-84 83 -162 156 -174 162 -15 7 -144 11 -405
11 -318 -1 -388 -3 -410 -16z m1377 -494 c18 -11 40 -36 49 -54 58 -122 -71
-245 -192 -182 -89 46 -94 181 -9 235 42 27 110 27 152 1z"/>
</g>
</svg>
