<?xml version="1.0" standalone="no"?>
<!DOCTYPE svg PUBLIC "-//W3C//DTD SVG 20010904//EN"
 "http://www.w3.org/TR/2001/REC-SVG-20010904/DTD/svg10.dtd">
<svg version="1.0" xmlns="http://www.w3.org/2000/svg"
 width="512.000000pt" height="512.000000pt" viewBox="0 0 512.000000 512.000000"
 preserveAspectRatio="xMidYMid meet">

<g transform="translate(0.000000,512.000000) scale(0.100000,-0.100000)"
fill="#000000" stroke="none">
<path d="M2441 4749 c-155 -26 -240 -112 -241 -242 0 -96 46 -175 139 -238
l50 -34 1 -845 0 -845 -62 -33 -62 -33 -45 32 c-132 93 -1082 760 -1311 921
-146 102 -280 193 -299 203 -25 13 -52 16 -106 13 -101 -5 -185 -49 -285 -148
-187 -187 -235 -402 -114 -511 23 -20 1463 -955 1707 -1108 49 -31 57 -40 56
-66 0 -28 -39 -57 -650 -485 -358 -250 -661 -468 -674 -483 -78 -90 -45 -236
81 -357 83 -80 170 -121 256 -122 35 0 76 5 92 11 15 6 339 213 720 459 480
310 699 446 716 445 14 0 62 -4 107 -8 55 -5 102 -4 142 5 l59 12 704 -455
c452 -292 720 -459 748 -467 207 -56 494 210 441 408 -7 23 -26 57 -45 75 -18
17 -321 235 -674 482 -606 425 -642 452 -642 480 0 25 8 35 43 56 23 15 211
136 417 269 206 133 578 373 825 533 248 159 465 303 482 320 75 71 83 188 20
318 -67 140 -204 273 -327 320 -30 11 -76 19 -113 19 -54 0 -71 -5 -118 -33
-30 -18 -405 -280 -833 -581 -429 -301 -785 -550 -791 -553 -7 -2 -29 7 -49
21 -21 14 -46 28 -57 31 -19 6 -19 26 -19 853 l1 847 50 34 c93 63 139 142
139 238 0 67 -24 125 -66 165 -77 72 -249 104 -413 77z m277 -134 c87 -35 109
-115 52 -193 -17 -23 -34 -42 -39 -42 -5 0 -21 16 -35 35 -36 47 -74 65 -136
65 -62 0 -98 -18 -139 -67 -29 -36 -31 -36 -50 -19 -28 25 -51 78 -51 118 0
60 45 99 133 118 63 14 215 5 265 -15z m-120 -267 c9 -9 12 -223 12 -900 l0
-888 -50 0 -50 0 0 888 c0 677 3 891 12 900 7 7 24 12 38 12 14 0 31 -5 38
-12z m-1128 -1456 c498 -349 906 -636 907 -637 2 -1 -44 -11 -101 -22 -175
-35 -326 -126 -365 -222 -8 -17 -18 -31 -23 -31 -5 0 -300 188 -656 418 -356
230 -732 474 -837 541 -104 68 -200 132 -212 144 -57 52 -3 206 111 322 91 92
180 138 246 127 14 -3 432 -291 930 -640z m3231 611 c71 -36 175 -142 217
-221 39 -73 53 -161 31 -189 -16 -20 -47 -40 -986 -646 -398 -257 -726 -467
-731 -467 -4 0 -16 16 -26 35 -60 111 -203 193 -394 225 l-72 12 267 188 c148
104 556 391 908 639 613 431 642 450 686 451 30 0 63 -9 100 -27z m-1989
-1083 c15 -7 25 -16 23 -21 -9 -13 -164 -119 -175 -119 -19 0 -196 129 -178
130 2 0 21 7 43 15 50 19 246 15 287 -5z m136 -310 c191 -46 282 -138 282
-285 0 -161 -196 -337 -470 -421 -101 -31 -223 -8 -379 70 -132 67 -257 189
-281 274 -5 20 -10 61 -10 90 0 159 134 259 390 292 110 15 374 3 468 -20z
m-915 -495 c39 -61 161 -173 236 -215 34 -19 68 -39 76 -45 11 -8 -126 -101
-597 -405 -782 -506 -711 -463 -763 -462 -62 2 -133 41 -193 107 -57 63 -81
121 -65 158 6 12 142 115 304 229 162 113 445 312 629 442 184 130 337 236
340 236 3 0 18 -20 33 -45z m1922 -401 c477 -335 637 -452 641 -471 10 -38
-23 -109 -75 -162 -62 -64 -122 -94 -186 -95 -49 -1 -60 6 -705 423 -360 233
-659 427 -663 431 -4 4 30 30 77 58 101 62 180 132 231 207 21 30 40 55 42 55
2 0 289 -201 638 -446z"/>
</g>
</svg>
