<?xml version="1.0" standalone="no"?>
<!DOCTYPE svg PUBLIC "-//W3C//DTD SVG 20010904//EN"
 "http://www.w3.org/TR/2001/REC-SVG-20010904/DTD/svg10.dtd">
<svg version="1.0" xmlns="http://www.w3.org/2000/svg"
 width="512.000000pt" height="512.000000pt" viewBox="0 0 512.000000 512.000000"
 preserveAspectRatio="xMidYMid meet">

<g transform="translate(0.000000,512.000000) scale(0.100000,-0.100000)"
fill="#000000" stroke="none">
<path d="M3411 5110 c-576 -73 -1072 -476 -1259 -1025 -59 -173 -75 -279 -76
-490 0 -211 16 -314 76 -490 32 -95 109 -258 135 -287 22 -24 85 -24 106 0 27
30 20 66 -32 175 -327 683 -57 1485 615 1828 107 54 233 98 364 126 118 25
391 25 509 0 323 -69 594 -227 789 -460 161 -191 253 -382 308 -637 26 -119
26 -391 0 -510 -94 -440 -366 -795 -751 -980 -205 -99 -365 -134 -600 -134
-193 0 -285 14 -449 71 -181 63 -347 162 -488 292 -64 59 -82 71 -111 71 -43
0 -67 -26 -67 -72 0 -32 9 -44 83 -113 202 -188 450 -315 737 -376 151 -32
439 -33 587 -1 620 133 1072 585 1205 1205 31 147 31 437 0 584 -133 620 -592
1079 -1202 1203 -120 25 -360 34 -479 20z"/>
<path d="M3470 4814 c-184 -27 -298 -61 -438 -134 -327 -169 -553 -466 -639
-842 -12 -54 -16 -119 -16 -248 0 -164 2 -183 31 -295 56 -213 169 -412 322
-565 152 -151 354 -266 565 -322 113 -29 130 -31 300 -31 170 0 187 2 300 31
436 115 772 451 887 887 29 112 31 131 31 295 0 187 -9 249 -59 398 -97 289
-323 555 -586 688 -37 19 -77 34 -88 34 -29 0 -70 -44 -70 -75 0 -34 28 -59
135 -120 162 -92 327 -271 413 -446 161 -330 144 -714 -44 -1031 -67 -114
-248 -295 -362 -362 -176 -105 -347 -151 -557 -151 -210 0 -374 45 -555 150
-116 68 -295 247 -364 363 -105 176 -151 347 -151 557 0 159 15 243 68 385 56
148 118 241 247 370 130 130 222 191 372 247 151 57 204 66 401 67 175 1 179
2 198 25 44 54 11 110 -72 122 -54 8 -222 9 -269 3z"/>
<path d="M3065 4255 c-79 -28 -145 -124 -145 -210 0 -80 16 -104 186 -275 90
-91 164 -170 164 -175 0 -5 -74 -84 -164 -175 -170 -171 -186 -195 -186 -275
0 -119 106 -225 225 -225 80 0 104 16 275 186 91 90 170 164 175 164 5 0 84
-74 175 -164 132 -131 173 -166 205 -175 91 -25 162 -7 226 58 65 64 83 135
58 226 -9 32 -44 73 -175 205 -90 91 -164 170 -164 175 0 5 74 84 164 175 170
171 186 195 186 275 0 119 -106 225 -225 225 -80 0 -104 -16 -275 -186 -91
-90 -170 -164 -175 -164 -5 0 -84 74 -175 164 -132 131 -173 166 -205 175 -53
14 -101 13 -150 -4z m302 -327 c177 -177 195 -192 228 -192 33 0 51 15 228
192 210 209 223 217 272 167 50 -49 42 -62 -167 -272 -177 -177 -192 -195
-192 -228 0 -33 15 -51 192 -228 209 -210 217 -223 167 -272 -49 -50 -62 -42
-272 167 -177 177 -195 192 -228 192 -33 0 -51 -15 -228 -192 -210 -209 -223
-217 -272 -167 -50 49 -42 62 167 272 177 177 192 195 192 228 0 33 -15 51
-192 228 -209 210 -217 223 -167 272 49 50 62 42 272 -167z"/>
<path d="M644 3879 c-62 -30 -417 -394 -482 -493 -58 -90 -104 -192 -134 -304
-31 -115 -31 -353 0 -472 65 -244 377 -742 738 -1175 136 -164 488 -517 658
-661 207 -174 426 -334 459 -334 35 0 77 40 77 73 0 34 -18 52 -155 152 -531
390 -1023 920 -1377 1485 -109 174 -196 331 -223 403 -59 157 -68 335 -25 502
37 146 102 258 228 395 l60 65 105 -102 c115 -113 138 -123 182 -78 45 44 35
67 -77 182 l-103 104 66 65 c37 35 73 64 80 64 18 0 839 -821 839 -839 0 -7
-29 -43 -65 -80 l-64 -66 -223 223 c-208 207 -226 222 -259 222 -44 0 -72 -28
-72 -71 0 -26 29 -60 224 -255 l223 -224 -111 -113 c-122 -123 -149 -169 -160
-266 -9 -96 10 -159 86 -274 203 -308 543 -650 852 -857 122 -83 156 -95 259
-94 123 1 159 20 297 157 l114 111 427 -427 427 -428 -70 -65 c-147 -136 -288
-209 -460 -239 -110 -19 -170 -19 -280 0 -118 21 -205 56 -365 149 -149 87
-189 97 -221 57 -46 -56 -21 -91 124 -175 268 -155 382 -191 612 -190 165 1
238 15 378 74 132 55 219 121 429 328 244 240 268 283 219 387 -26 56 -852
879 -903 900 -47 19 -89 19 -136 0 -24 -10 -116 -95 -262 -240 -231 -230 -264
-255 -335 -255 -47 0 -88 18 -178 79 -268 181 -552 459 -754 739 -112 155
-132 217 -98 300 10 24 96 117 240 262 144 144 230 238 239 262 20 47 20 89 1
136 -21 51 -844 877 -900 903 -52 24 -100 24 -151 -2z m2693 -2732 c227 -227
413 -418 413 -426 0 -7 -29 -43 -65 -80 l-64 -66 -428 428 -428 428 66 64 c37
36 73 65 80 65 8 0 199 -186 426 -413z"/>
</g>
</svg>
