<?xml version="1.0" standalone="no"?>
<!DOCTYPE svg PUBLIC "-//W3C//DTD SVG 20010904//EN"
 "http://www.w3.org/TR/2001/REC-SVG-20010904/DTD/svg10.dtd">
<svg version="1.0" xmlns="http://www.w3.org/2000/svg"
 width="512.000000pt" height="512.000000pt" viewBox="0 0 512.000000 512.000000"
 preserveAspectRatio="xMidYMid meet">

<g transform="translate(0.000000,512.000000) scale(0.100000,-0.100000)"
fill="#000000" stroke="none">
<path d="M821 4657 c-19 -7 -44 -25 -55 -40 -20 -27 -21 -42 -24 -308 l-3
-279 -277 0 c-270 0 -278 -1 -327 -24 -59 -27 -96 -67 -119 -128 -15 -39 -16
-188 -14 -1653 3 -1477 4 -1612 20 -1640 23 -42 65 -83 113 -109 l40 -21 2385
0 2385 0 40 21 c48 26 90 67 113 109 16 28 17 163 20 1640 2 1465 1 1614 -14
1653 -23 61 -60 101 -119 128 -49 23 -57 24 -327 24 l-277 0 -3 279 c-3 266
-4 281 -24 308 -39 52 -58 54 -543 51 -489 -3 -476 -2 -506 -64 -12 -26 -15
-83 -15 -303 l0 -271 -730 0 -730 0 0 271 c0 220 -3 277 -15 303 -30 63 -16
61 -510 63 -332 2 -459 -1 -484 -10z m789 -417 l0 -210 -325 0 -325 0 0 210 0
210 325 0 325 0 0 -210z m2548 -2 l2 -208 -325 0 -325 0 0 210 0 210 323 -2
322 -3 3 -207z m740 -1995 l-3 -1568 -2335 0 -2335 0 -3 1568 -2 1567 2340 0
2340 0 -2 -1567z"/>
<path d="M2553 3423 c-31 -18 -801 -753 -837 -800 -21 -27 -24 -91 -5 -121 30
-48 17 -47 659 -52 l606 -5 -339 -314 c-186 -172 -341 -310 -344 -307 -3 3
-10 79 -16 168 -10 183 -22 221 -72 245 -77 37 -155 -18 -155 -109 0 -63 28
-509 35 -564 6 -44 33 -80 70 -94 26 -10 509 -50 602 -50 68 0 98 17 119 66
11 27 12 40 1 70 -22 66 -43 74 -237 90 -95 8 -175 16 -177 18 -2 2 189 182
424 401 235 218 439 410 451 426 27 32 33 86 13 123 -31 56 -26 56 -677 56
l-598 0 175 167 c96 92 238 230 317 308 132 131 142 143 142 178 0 48 -25 86
-67 103 -42 18 -52 18 -90 -3z"/>
</g>
</svg>
