<?xml version="1.0" standalone="no"?>
<!DOCTYPE svg PUBLIC "-//W3C//DTD SVG 20010904//EN"
 "http://www.w3.org/TR/2001/REC-SVG-20010904/DTD/svg10.dtd">
<svg version="1.0" xmlns="http://www.w3.org/2000/svg"
 width="512.000000pt" height="512.000000pt" viewBox="0 0 512.000000 512.000000"
 preserveAspectRatio="xMidYMid meet">

<g transform="translate(0.000000,512.000000) scale(0.100000,-0.100000)"
fill="#000000" stroke="none">
<path d="M4000 4947 c-49 -16 -133 -102 -148 -153 -9 -31 -12 -280 -12 -1017
l0 -975 -35 -6 c-43 -8 -94 -50 -111 -93 -11 -25 -14 -113 -14 -408 l0 -375
-1642 -2 -1643 -3 -50 -25 c-64 -31 -124 -91 -155 -155 l-25 -50 0 -485 0
-485 25 -50 c56 -113 152 -174 288 -183 l82 -5 0 -134 c0 -129 1 -135 25 -158
l24 -25 311 0 311 0 24 25 c24 23 25 29 25 160 l0 135 1280 0 1280 0 0 -135
c0 -131 1 -137 25 -160 l24 -25 311 0 311 0 24 25 c24 23 25 29 25 158 l0 134
83 5 c135 9 231 70 287 183 l25 50 0 485 0 485 -25 50 c-32 64 -92 124 -155
154 -42 21 -70 25 -172 29 l-122 4 -3 388 -3 388 -31 39 c-21 26 -45 43 -77
53 l-47 15 0 974 c0 723 -3 984 -12 1013 -17 59 -88 133 -145 152 -53 18 -112
19 -163 3z m135 -172 l25 -24 0 -976 0 -975 -80 0 -80 0 0 975 0 976 25 24
c15 16 36 25 55 25 19 0 40 -9 55 -25z m185 -2495 l0 -360 -240 0 -240 0 0
360 0 360 240 0 240 0 0 -360z m406 -546 c15 -11 37 -33 48 -48 21 -27 21 -38
21 -486 0 -448 0 -459 -21 -486 -11 -15 -33 -37 -48 -48 l-27 -21 -2139 0
-2139 0 -27 21 c-15 11 -37 33 -48 48 -20 27 -21 41 -24 459 -2 238 0 446 3
464 7 40 49 91 90 109 25 11 404 13 2157 11 l2127 -2 27 -21z m-3606 -1334 l0
-80 -200 0 -200 0 0 80 0 80 200 0 200 0 0 -80z m3280 0 l0 -80 -200 0 -200 0
0 80 0 80 200 0 200 0 0 -80z"/>
<path d="M800 1587 c-49 -16 -133 -102 -148 -153 -28 -94 -8 -169 63 -239 101
-102 229 -102 330 0 102 101 102 229 0 330 -70 71 -152 91 -245 62z m135 -172
c16 -15 25 -36 25 -55 0 -19 -9 -40 -25 -55 -15 -16 -36 -25 -55 -25 -19 0
-40 9 -55 25 -16 15 -25 36 -25 55 0 19 9 40 25 55 15 16 36 25 55 25 19 0 40
-9 55 -25z"/>
<path d="M1440 1587 c-49 -16 -133 -102 -148 -153 -28 -94 -8 -169 63 -239
102 -103 243 -101 338 5 91 101 89 235 -6 328 -67 65 -158 87 -247 59z m135
-172 c50 -49 15 -135 -55 -135 -19 0 -40 9 -55 25 -16 15 -25 36 -25 55 0 19
9 40 25 55 15 16 36 25 55 25 19 0 40 -9 55 -25z"/>
<path d="M2080 1587 c-49 -16 -133 -102 -148 -153 -28 -94 -8 -169 63 -239
102 -103 243 -101 338 5 90 100 90 220 0 320 -65 72 -158 97 -253 67z m135
-172 c50 -49 15 -135 -55 -135 -19 0 -40 9 -55 25 -16 15 -25 36 -25 55 0 19
9 40 25 55 15 16 36 25 55 25 19 0 40 -9 55 -25z"/>
<path d="M2589 1421 c-18 -14 -24 -29 -24 -61 0 -32 6 -47 24 -61 22 -18 45
-19 411 -19 366 0 389 1 411 19 33 27 33 95 0 122 -22 18 -45 19 -411 19 -366
0 -389 -1 -411 -19z"/>
<path d="M3669 1421 c-18 -14 -24 -29 -24 -61 0 -70 22 -80 175 -80 153 0 175
10 175 80 0 70 -22 80 -175 80 -110 0 -131 -3 -151 -19z"/>
<path d="M1675 4049 c-327 -18 -656 -122 -938 -296 -124 -77 -238 -164 -334
-257 -92 -88 -102 -113 -60 -162 40 -46 74 -38 154 36 277 255 584 414 936
486 228 47 520 47 744 1 356 -74 658 -231 936 -487 80 -74 114 -82 154 -36 42
49 32 74 -59 162 -405 388 -950 584 -1533 553z"/>
<path d="M1577 3535 c-324 -53 -611 -193 -844 -412 -73 -68 -82 -102 -37 -147
44 -44 73 -36 161 45 183 167 419 289 668 344 108 24 370 30 485 11 283 -46
536 -167 743 -355 57 -52 85 -71 105 -71 51 0 93 60 77 109 -3 12 -45 55 -93
97 -213 185 -455 306 -727 364 -132 28 -410 36 -538 15z"/>
<path d="M1655 3039 c-209 -30 -433 -139 -577 -279 -64 -62 -72 -90 -38 -133
24 -30 63 -42 90 -27 11 6 47 35 80 64 118 106 297 189 460 215 256 41 551
-48 741 -224 25 -23 55 -48 67 -54 29 -15 68 -4 92 26 34 43 26 71 -38 133
-220 215 -564 324 -877 279z"/>
<path d="M1735 2544 c-111 -17 -226 -70 -303 -139 -60 -54 -70 -80 -48 -123
29 -56 80 -57 144 -3 169 142 383 142 554 0 64 -54 115 -53 144 3 22 43 12 69
-48 123 -58 52 -136 95 -216 119 -57 16 -178 27 -227 20z"/>
</g>
</svg>
